<svg width="103" height="47" viewBox="0 0 103 47" fill="none" xmlns="http://www.w3.org/2000/svg">
<g clip-path="url(#clip0_41_309)">
<path d="M35.9978 23.5C35.9978 29.8765 34.7926 35.6006 32.8876 39.6931C30.9452 43.8658 28.4595 46 26.0531 46C23.6466 46 21.161 43.8658 19.2186 39.6931C17.3135 35.6006 16.1083 29.8765 16.1083 23.5C16.1083 17.1235 17.3135 11.3994 19.2186 7.30693C21.161 3.13425 23.6466 1 26.0531 1C28.4595 1 30.9452 3.13425 32.8876 7.30693C34.7926 11.3994 35.9978 17.1235 35.9978 23.5Z" stroke="black" stroke-width="2"/>
<path d="M31.1005 14.8837C36.5643 18.1201 40.8574 22.0694 43.3973 25.7971C45.9869 29.5978 46.554 32.8346 45.3327 34.9196C44.1113 37.0047 41.021 38.075 36.4597 37.6401C31.9861 37.2136 26.4696 35.3526 21.0058 32.1163C15.5419 28.88 11.2489 24.9306 8.70902 21.2029C6.1194 17.4022 5.55218 14.1654 6.77358 12.0804C7.99497 9.99536 11.0853 8.92498 15.6465 9.35986C20.1202 9.78639 25.6366 11.6474 31.1005 14.8837Z" stroke="black" stroke-width="2"/>
<path d="M20.9313 14.9283C26.3669 11.6441 31.867 9.7348 36.3368 9.26903C40.894 8.79413 43.9935 9.83735 45.233 11.9116C46.4724 13.9858 45.9333 17.2275 43.3768 21.0508C40.8694 24.8006 36.6107 28.7875 31.1752 32.0716C25.7396 35.3558 20.2396 37.2651 15.7698 37.7309C11.2125 38.2058 8.11302 37.1626 6.87358 35.0883C5.63414 33.0141 6.17324 29.7724 8.72977 25.9491C11.2372 22.1993 15.4958 18.2124 20.9313 14.9283Z" stroke="black" stroke-width="2"/>
<path d="M31.1933 6.5C32.5664 6.5 33.6795 5.38071 33.6795 4C33.6795 2.61929 32.5664 1.5 31.1933 1.5C29.8203 1.5 28.7072 2.61929 28.7072 4C28.7072 5.38071 29.8203 6.5 31.1933 6.5Z" fill="#40BF8E" stroke="black"/>
<path d="M40.1437 40.5C41.5167 40.5 42.6298 39.3807 42.6298 38C42.6298 36.6193 41.5167 35.5 40.1437 35.5C38.7706 35.5 37.6575 36.6193 37.6575 38C37.6575 39.3807 38.7706 40.5 40.1437 40.5Z" fill="#40BF8E" stroke="black"/>
<path d="M7.32597 31.5C8.69905 31.5 9.81216 30.3807 9.81216 29C9.81216 27.6193 8.69905 26.5 7.32597 26.5C5.95289 26.5 4.83978 27.6193 4.83978 29C4.83978 30.3807 5.95289 31.5 7.32597 31.5Z" fill="#40BF8E" stroke="black"/>
<path d="M26.221 26.5C28.1433 26.5 29.7016 24.933 29.7016 23C29.7016 21.067 28.1433 19.5 26.221 19.5C24.2986 19.5 22.7403 21.067 22.7403 23C22.7403 24.933 24.2986 26.5 26.221 26.5Z" fill="#40BF8E" stroke="black"/>
<path d="M54.4959 32.024C53.9072 32.024 53.5094 31.872 53.3025 31.568C53.0957 31.264 52.9922 30.928 52.9922 30.56V13.976C52.9922 13.208 53.4537 12.824 54.3766 12.824C55.3313 12.824 55.8086 13.208 55.8086 13.976V29.6H63.7803C64.3531 29.6 64.6395 29.992 64.6395 30.776C64.6714 31.608 64.385 32.024 63.7803 32.024H54.4959ZM83.8308 13.736L83.807 13.76C83.9024 13.408 84.0854 13.152 84.3559 12.992C84.6423 12.832 85.0162 12.792 85.4777 12.872C85.9391 12.952 86.2653 13.096 86.4562 13.304C86.6631 13.512 86.7108 13.8 86.5994 14.168L82.3033 31.376V31.352C82.2238 31.624 82.0408 31.832 81.7544 31.976C81.4839 32.12 81.1975 32.192 80.8951 32.192C80.5451 32.192 80.2109 32.136 79.8927 32.024C79.5904 31.928 79.3994 31.72 79.3199 31.4L79.3438 31.424L76.4081 19.712H75.7636L72.8518 31.4C72.7723 31.672 72.5734 31.872 72.2551 32C71.9369 32.128 71.6107 32.192 71.2766 32.192C70.8629 32.192 70.5287 32.128 70.2741 32C70.0355 31.888 69.8764 31.68 69.7968 31.376L69.8207 31.4L65.5245 14.168C65.445 13.848 65.5166 13.576 65.7393 13.352C65.9621 13.112 66.2803 12.952 66.694 12.872C67.5851 12.728 68.1261 13.024 68.317 13.76L68.2931 13.736L69.3672 18.08C69.5104 18.656 69.6536 19.248 69.7968 19.856C69.94 20.448 70.0991 21.088 70.2741 21.776C70.4492 22.448 70.6401 23.184 70.847 23.984C71.0538 24.784 71.2845 25.68 71.5391 26.672L74.5941 13.712C74.6737 13.36 74.8567 13.128 75.1431 13.016C75.4295 12.904 75.7477 12.848 76.0978 12.848C76.416 12.848 76.7263 12.912 77.0286 13.04C77.3309 13.152 77.5219 13.392 77.6014 13.76L80.7519 26.6L83.8308 13.736ZM98.866 13.232C99.1047 12.944 99.3752 12.8 99.6775 12.8C100.012 12.8 100.354 12.952 100.704 13.256C100.879 13.432 101.022 13.608 101.134 13.784C101.261 13.96 101.325 14.136 101.325 14.312C101.325 14.6 101.221 14.848 101.014 15.056L97.8158 18.8L91.5864 26.168V30.992C91.5864 31.76 91.1091 32.144 90.1544 32.144C89.2156 32.144 88.7462 31.76 88.7462 30.992V13.976C88.7462 13.208 89.2156 12.824 90.1544 12.824C91.1091 12.824 91.5864 13.208 91.5864 13.976V21.824L98.866 13.232ZM95.4768 24.632C95.3177 24.408 95.2381 24.136 95.2381 23.816C95.2381 23.336 95.437 22.952 95.8348 22.664H95.811C96.1292 22.44 96.4474 22.328 96.7657 22.328C97.068 22.328 97.3226 22.504 97.5294 22.856L102.136 29.624L102.112 29.6C102.256 29.824 102.327 30.064 102.327 30.32C102.327 30.736 102.12 31.104 101.707 31.424H101.73C101.555 31.536 101.388 31.624 101.229 31.688C101.07 31.752 100.927 31.784 100.8 31.784C100.672 31.784 100.537 31.736 100.394 31.64C100.267 31.544 100.139 31.424 100.012 31.28L95.4768 24.632Z" fill="black"/>
</g>
<defs>
<clipPath id="clip0_41_309">
<rect width="102.431" height="47" fill="white" transform="translate(0.364624)"/>
</clipPath>
</defs>
</svg>
