<svg width="175" height="213" viewBox="0 0 175 213" fill="none" xmlns="http://www.w3.org/2000/svg">
<path d="M77.7509 79.4715C74.6001 72.8555 76.328 65.4359 81.6227 62.914C86.9174 60.3921 93.7653 63.7208 96.9192 70.3336C100.073 76.9465 98.339 84.347 93.0443 86.8689C87.7496 89.3908 80.9017 86.0653 77.7509 79.4715ZM108.909 47.392C113.991 79.2524 91.326 103.134 91.326 103.134C91.326 103.134 72.6436 71.5056 41.1993 61.9612C102.344 106.672 67.5426 162.415 67.5426 162.415H85.2435C85.2435 162.415 126.388 91.414 108.909 47.392Z" fill="#2411FF"/>
<path d="M68.6602 49.135C66.8863 46.0551 68.1069 42.0329 68.1069 42.0329C68.1069 42.0329 72.1955 42.9815 73.9694 46.0614C75.2564 48.3034 74.9592 51.0228 74.7062 52.3477C74.4374 51.8007 74.1465 51.222 73.8113 50.6338C72.8178 48.9408 71.6583 47.3703 70.333 45.9223C70.916 47.801 71.6981 49.5929 72.6793 51.2979C73.0271 51.8924 73.3718 52.4299 73.7133 52.9359C72.4548 52.4805 69.9472 51.3769 68.6602 49.135ZM114.138 76.2564C115.159 77.1355 117.369 78.7513 119.946 78.7513C123.498 78.7513 126.366 75.6809 126.366 75.6809C126.366 75.6809 123.501 72.6137 119.946 72.6137C117.369 72.6137 115.159 74.2295 114.138 75.1086C114.748 75.0643 115.384 75.0327 116.07 75.0327C118.037 75.0358 119.982 75.2466 121.904 75.6651C119.982 76.0884 118.037 76.2993 116.07 76.2975C115.425 76.3198 114.781 76.3061 114.138 76.2564ZM101.243 50.6433C102.229 48.9409 103.388 47.3662 104.721 45.9191C104.135 47.7978 103.351 49.5897 102.368 51.2947C102.027 51.8797 101.682 52.4267 101.328 52.9327C102.615 52.49 105.123 51.3769 106.387 49.1381C108.168 46.0551 106.96 42.0266 106.96 42.0266C106.96 42.0266 102.849 43.0005 101.088 46.0614C99.8038 48.2939 100.088 51.0069 100.348 52.3508C100.616 51.7668 100.914 51.1986 101.243 50.6465V50.6433ZM86.0898 33.8999C86.0963 29.5355 86.5748 25.2234 87.5254 20.9637C88.4771 25.2233 88.9567 29.5354 88.9641 33.8999C88.9641 35.4114 88.8914 36.8407 88.7839 38.1941C90.7507 35.9237 94.3397 31.0034 94.3397 25.2674C94.3397 17.3621 87.5254 10.981 87.5254 10.981C87.5254 10.981 80.7079 17.3748 80.7079 25.2674C80.7079 31.0034 84.2969 35.9174 86.2605 38.1941C86.172 36.8439 86.0898 35.4209 86.0898 33.9031V33.8999ZM40.4605 56.3794C45.4345 59.2474 51.4805 58.5929 54.4307 58.03C53.2102 57.4577 51.9327 56.7873 50.6362 56.0379C46.8584 53.8536 43.3622 51.286 40.1475 48.335C44.3122 49.6391 48.2859 51.3793 52.0686 53.5556C53.3778 54.3145 54.5983 55.0829 55.7019 55.8576C54.7248 53.0117 52.2679 47.4496 47.2875 44.5784C40.4605 40.6289 31.5149 43.3325 31.5149 43.3325C31.5149 43.3325 33.6304 52.4426 40.4605 56.3825V56.3794ZM134.581 94.9824C129.613 92.1175 123.567 92.7689 120.617 93.3286C121.841 93.9041 123.118 94.5745 124.411 95.3239C128.187 97.513 131.683 100.082 134.9 103.03C130.733 101.727 126.758 99.9881 122.973 97.8125C121.664 97.0504 120.462 96.2789 119.346 95.5042C120.323 98.3501 122.78 103.909 127.747 106.777C134.574 110.73 143.53 108.026 143.53 108.026C143.53 108.026 141.408 98.9224 134.581 94.9824ZM55.6861 95.52C54.5635 96.2852 53.3651 97.0536 52.056 97.8188C48.2688 99.9892 44.2941 101.731 40.1317 103.046C43.3446 100.089 46.8398 97.5165 50.6172 95.3271C51.9327 94.565 53.207 93.9231 54.4276 93.335C51.4805 92.7626 45.425 92.1081 40.4542 94.9888C33.6241 98.9287 31.4896 108.029 31.4896 108.029C31.4896 108.029 40.4384 110.733 47.2717 106.793C52.2489 103.912 54.7058 98.3564 55.6861 95.52ZM119.374 55.8387C120.487 55.0734 121.692 54.305 123.011 53.5461C126.791 51.3699 130.763 49.6297 134.925 48.3255C131.711 51.28 128.214 53.8487 124.434 56.0316C123.124 56.7905 121.844 57.4482 120.639 58.0205C123.58 58.5929 129.635 59.2506 134.593 56.3731C141.43 52.4267 143.558 43.323 143.558 43.323C143.558 43.323 134.616 40.6257 127.789 44.5721C122.799 47.4401 120.323 53.0023 119.374 55.8387ZM60.9384 33.0082C59.917 31.5062 58.8767 29.8904 57.8585 28.1323C54.9388 23.0612 52.603 17.7341 50.8512 12.151C54.8142 16.4609 58.2609 21.1503 61.1913 26.2192C62.2064 27.9678 63.0886 29.6785 63.8601 31.3197C64.6317 27.3702 65.5044 19.2625 61.6467 12.6C56.3565 3.42985 44.157 0.583951 44.157 0.583951C44.157 0.583951 40.5364 12.5747 45.8235 21.7448C49.6718 28.3852 57.1375 31.6896 60.9289 33.0082H60.9384ZM114.125 118.363C115.146 119.862 116.196 121.475 117.208 123.226C120.127 128.302 122.463 133.633 124.215 139.22C120.254 134.905 116.804 130.213 113.866 125.146C112.857 123.388 111.968 121.667 111.197 120.045C110.444 123.998 109.562 132.09 113.41 138.756C118.704 147.926 130.9 150.772 130.9 150.772C130.9 150.772 134.54 138.756 129.246 129.611C125.382 122.97 117.923 119.675 114.125 118.363ZM31.5086 77.6161C25.6553 77.6066 19.8728 76.9615 14.1613 75.6809C19.8728 74.4003 25.6553 73.7552 31.5086 73.7457C33.5418 73.7457 35.4581 73.8564 37.2668 73.986C34.228 71.3488 27.6445 66.5329 19.9384 66.5329C9.36751 66.5392 0.795029 75.6809 0.795029 75.6809C0.795029 75.6809 9.37383 84.8257 19.9384 84.8194C27.6382 84.8194 34.2217 80.0098 37.2605 77.379C35.4549 77.5149 33.5292 77.6161 31.5086 77.6161ZM155.109 66.5487C147.416 66.5487 140.832 71.3425 137.787 73.9923C139.599 73.8532 141.525 73.7489 143.542 73.7552C149.394 73.7641 155.175 74.4071 160.886 75.6841C155.179 76.9647 149.401 77.6098 143.552 77.6193C141.525 77.6193 139.599 77.5149 137.787 77.3821C140.826 80.0162 147.416 84.8257 155.109 84.8257C165.683 84.8257 174.246 75.6967 174.246 75.6967C174.246 75.6967 165.674 66.5456 155.106 66.5551L155.109 66.5487ZM61.1913 125.162C58.2552 130.227 54.8064 134.915 50.8449 139.227C52.5944 133.645 54.928 128.319 57.8458 123.249C58.8672 121.5 59.9075 119.89 60.9352 118.373C57.1407 119.691 49.6654 122.989 45.8203 129.658C40.5269 138.812 44.1539 150.816 44.1539 150.816C44.1539 150.816 56.3596 147.97 61.6498 138.8C65.5013 132.131 64.6285 124.02 63.8633 120.08C63.0665 121.693 62.1937 123.388 61.1913 125.162ZM113.869 26.1876C116.802 21.1234 120.248 16.4371 124.209 12.1288C122.46 17.7131 120.124 23.0402 117.202 28.1101C116.19 29.8524 115.15 31.4809 114.128 32.9798C117.923 31.6675 125.392 28.3694 129.23 21.71C134.521 12.5747 130.894 0.558655 130.894 0.558655C130.894 0.558655 118.697 3.42353 113.404 12.5747C109.543 19.2436 110.422 27.3481 111.191 31.2944C111.978 29.6785 112.844 27.9678 113.866 26.2034L113.869 26.1876Z" fill="#77B530"/>
<path d="M46.3125 197H38.9063V173H46.6406C48.9688 173 50.9609 173.48 52.6172 174.441C54.2734 175.395 55.543 176.766 56.4258 178.555C57.3086 180.336 57.75 182.469 57.75 184.953C57.75 187.453 57.3047 189.605 56.4141 191.41C55.5234 193.207 54.2266 194.59 52.5234 195.559C50.8203 196.52 48.75 197 46.3125 197ZM41.8125 194.422H46.125C48.1094 194.422 49.7539 194.039 51.0586 193.273C52.3633 192.508 53.3359 191.418 53.9766 190.004C54.6172 188.59 54.9375 186.906 54.9375 184.953C54.9375 183.016 54.6211 181.348 53.9883 179.949C53.3555 178.543 52.4102 177.465 51.1523 176.715C49.8945 175.957 48.3281 175.578 46.4531 175.578H41.8125V194.422ZM62.25 197V179H65.0156V197H62.25ZM63.6563 176C63.1172 176 62.6523 175.816 62.2617 175.449C61.8789 175.082 61.6875 174.641 61.6875 174.125C61.6875 173.609 61.8789 173.168 62.2617 172.801C62.6523 172.434 63.1172 172.25 63.6563 172.25C64.1953 172.25 64.6563 172.434 65.0391 172.801C65.4297 173.168 65.625 173.609 65.625 174.125C65.625 174.641 65.4297 175.082 65.0391 175.449C64.6563 175.816 64.1953 176 63.6563 176ZM75.3779 197.422C74.2373 197.422 73.2021 197.207 72.2725 196.777C71.3428 196.34 70.6045 195.711 70.0576 194.891C69.5107 194.063 69.2373 193.062 69.2373 191.891C69.2373 190.859 69.4404 190.023 69.8467 189.383C70.2529 188.734 70.7959 188.227 71.4756 187.859C72.1553 187.492 72.9053 187.219 73.7256 187.039C74.5537 186.852 75.3857 186.703 76.2217 186.594C77.3154 186.453 78.2021 186.348 78.8818 186.277C79.5693 186.199 80.0693 186.07 80.3818 185.891C80.7021 185.711 80.8623 185.398 80.8623 184.953V184.859C80.8623 183.703 80.5459 182.805 79.9131 182.164C79.2881 181.523 78.3389 181.203 77.0654 181.203C75.7451 181.203 74.71 181.492 73.96 182.07C73.21 182.648 72.6826 183.266 72.3779 183.922L69.7529 182.984C70.2217 181.891 70.8467 181.039 71.6279 180.43C72.417 179.812 73.2764 179.383 74.2061 179.141C75.1436 178.891 76.0654 178.766 76.9717 178.766C77.5498 178.766 78.2139 178.836 78.9639 178.977C79.7217 179.109 80.4521 179.387 81.1553 179.809C81.8662 180.23 82.4561 180.867 82.9248 181.719C83.3936 182.57 83.6279 183.711 83.6279 185.141V197H80.8623V194.562H80.7217C80.5342 194.953 80.2217 195.371 79.7842 195.816C79.3467 196.262 78.7646 196.641 78.0381 196.953C77.3115 197.266 76.4248 197.422 75.3779 197.422ZM75.7998 194.938C76.8936 194.938 77.8154 194.723 78.5654 194.293C79.3232 193.863 79.8936 193.309 80.2764 192.629C80.667 191.949 80.8623 191.234 80.8623 190.484V187.953C80.7451 188.094 80.4873 188.223 80.0889 188.34C79.6982 188.449 79.2451 188.547 78.7295 188.633C78.2217 188.711 77.7256 188.781 77.2412 188.844C76.7646 188.898 76.3779 188.945 76.0811 188.984C75.3623 189.078 74.6904 189.23 74.0654 189.441C73.4482 189.645 72.9482 189.953 72.5654 190.367C72.1904 190.773 72.0029 191.328 72.0029 192.031C72.0029 192.992 72.3584 193.719 73.0693 194.211C73.7881 194.695 74.6982 194.938 75.7998 194.938ZM89.0508 197V173H97.1602C99.043 173 100.582 173.34 101.777 174.02C102.98 174.691 103.871 175.602 104.449 176.75C105.027 177.898 105.316 179.18 105.316 180.594C105.316 182.008 105.027 183.293 104.449 184.449C103.879 185.605 102.996 186.527 101.801 187.215C100.605 187.895 99.0742 188.234 97.207 188.234H91.3945V185.656H97.1133C98.4023 185.656 99.4375 185.434 100.219 184.988C101 184.543 101.566 183.941 101.918 183.184C102.277 182.418 102.457 181.555 102.457 180.594C102.457 179.633 102.277 178.773 101.918 178.016C101.566 177.258 100.996 176.664 100.207 176.234C99.418 175.797 98.3711 175.578 97.0664 175.578H91.957V197H89.0508ZM114.92 197.422C113.779 197.422 112.744 197.207 111.814 196.777C110.885 196.34 110.146 195.711 109.6 194.891C109.053 194.063 108.779 193.062 108.779 191.891C108.779 190.859 108.982 190.023 109.389 189.383C109.795 188.734 110.338 188.227 111.018 187.859C111.697 187.492 112.447 187.219 113.268 187.039C114.096 186.852 114.928 186.703 115.764 186.594C116.857 186.453 117.744 186.348 118.424 186.277C119.111 186.199 119.611 186.07 119.924 185.891C120.244 185.711 120.404 185.398 120.404 184.953V184.859C120.404 183.703 120.088 182.805 119.455 182.164C118.83 181.523 117.881 181.203 116.607 181.203C115.287 181.203 114.252 181.492 113.502 182.07C112.752 182.648 112.225 183.266 111.92 183.922L109.295 182.984C109.764 181.891 110.389 181.039 111.17 180.43C111.959 179.812 112.818 179.383 113.748 179.141C114.686 178.891 115.607 178.766 116.514 178.766C117.092 178.766 117.756 178.836 118.506 178.977C119.264 179.109 119.994 179.387 120.697 179.809C121.408 180.23 121.998 180.867 122.467 181.719C122.936 182.57 123.17 183.711 123.17 185.141V197H120.404V194.562H120.264C120.076 194.953 119.764 195.371 119.326 195.816C118.889 196.262 118.307 196.641 117.58 196.953C116.854 197.266 115.967 197.422 114.92 197.422ZM115.342 194.938C116.436 194.938 117.357 194.723 118.107 194.293C118.865 193.863 119.436 193.309 119.818 192.629C120.209 191.949 120.404 191.234 120.404 190.484V187.953C120.287 188.094 120.029 188.223 119.631 188.34C119.24 188.449 118.787 188.547 118.271 188.633C117.764 188.711 117.268 188.781 116.783 188.844C116.307 188.898 115.92 188.945 115.623 188.984C114.904 189.078 114.232 189.23 113.607 189.441C112.99 189.645 112.49 189.953 112.107 190.367C111.732 190.773 111.545 191.328 111.545 192.031C111.545 192.992 111.9 193.719 112.611 194.211C113.33 194.695 114.24 194.938 115.342 194.938ZM130.983 173V197H128.218V173H130.983Z" fill="#2411FF"/>
<path d="M25.0568 201.273H26.3182L29.2841 208.517H29.3864L32.3523 201.273H33.6136V210H32.625V203.369H32.5398L29.8125 210H28.858L26.1307 203.369H26.0455V210H25.0568V201.273ZM37.5224 210.153C37.1076 210.153 36.7312 210.075 36.3931 209.919C36.055 209.76 35.7866 209.531 35.5877 209.233C35.3888 208.932 35.2894 208.568 35.2894 208.142C35.2894 207.767 35.3633 207.463 35.511 207.23C35.6587 206.994 35.8562 206.81 36.1033 206.676C36.3505 206.543 36.6232 206.443 36.9215 206.378C37.2227 206.31 37.5252 206.256 37.8292 206.216C38.2269 206.165 38.5494 206.126 38.7965 206.101C39.0465 206.072 39.2283 206.026 39.342 205.96C39.4585 205.895 39.5167 205.781 39.5167 205.619V205.585C39.5167 205.165 39.4016 204.838 39.1715 204.605C38.9442 204.372 38.5991 204.256 38.136 204.256C37.6559 204.256 37.2795 204.361 37.0067 204.571C36.734 204.781 36.5423 205.006 36.4315 205.244L35.4769 204.903C35.6474 204.506 35.8746 204.196 36.1587 203.974C36.4457 203.75 36.7582 203.594 37.0962 203.506C37.4371 203.415 37.7724 203.369 38.1019 203.369C38.3121 203.369 38.5536 203.395 38.8263 203.446C39.1019 203.494 39.3675 203.595 39.6232 203.749C39.8817 203.902 40.0962 204.134 40.2667 204.443C40.4371 204.753 40.5224 205.168 40.5224 205.688V210H39.5167V209.114H39.4656C39.3974 209.256 39.2837 209.408 39.1246 209.57C38.9656 209.732 38.7539 209.869 38.4897 209.983C38.2255 210.097 37.9031 210.153 37.5224 210.153ZM37.6758 209.25C38.0735 209.25 38.4087 209.172 38.6815 209.016C38.957 208.859 39.1644 208.658 39.3036 208.411C39.4457 208.163 39.5167 207.903 39.5167 207.631V206.71C39.4741 206.761 39.3803 206.808 39.2354 206.851C39.0934 206.891 38.9286 206.926 38.7411 206.957C38.5565 206.986 38.3761 207.011 38.1999 207.034C38.0266 207.054 37.886 207.071 37.7781 207.085C37.5167 207.119 37.2724 207.175 37.0451 207.251C36.8207 207.325 36.6388 207.437 36.4996 207.588C36.3633 207.736 36.2951 207.937 36.2951 208.193C36.2951 208.543 36.4244 208.807 36.6829 208.986C36.9442 209.162 37.2752 209.25 37.6758 209.25ZM43.2955 207.614L43.2784 206.369H43.483L46.3466 203.455H47.5909L44.5398 206.54H44.4545L43.2955 207.614ZM42.358 210V201.273H43.3636V210H42.358ZM46.517 210L43.9602 206.761L44.6761 206.062L47.7955 210H46.517ZM51.3601 210.136C50.7294 210.136 50.1854 209.997 49.728 209.719C49.2734 209.438 48.9226 209.045 48.6754 208.543C48.4311 208.037 48.3089 207.449 48.3089 206.778C48.3089 206.108 48.4311 205.517 48.6754 205.006C48.9226 204.491 49.2663 204.091 49.7067 203.804C50.1499 203.514 50.6669 203.369 51.2578 203.369C51.5987 203.369 51.9354 203.426 52.2678 203.54C52.6001 203.653 52.9027 203.838 53.1754 204.094C53.4482 204.347 53.6655 204.682 53.8274 205.099C53.9893 205.517 54.0703 206.031 54.0703 206.642V207.068H49.0249V206.199H53.0476C53.0476 205.83 52.9737 205.5 52.826 205.21C52.6811 204.92 52.4737 204.692 52.2038 204.524C51.9368 204.357 51.6214 204.273 51.2578 204.273C50.8572 204.273 50.5107 204.372 50.218 204.571C49.9283 204.767 49.7053 205.023 49.549 205.338C49.3928 205.653 49.3146 205.991 49.3146 206.352V206.932C49.3146 207.426 49.3999 207.845 49.5703 208.189C49.7436 208.53 49.9837 208.79 50.2905 208.969C50.5973 209.145 50.9538 209.233 51.3601 209.233C51.6243 209.233 51.8629 209.196 52.076 209.122C52.2919 209.045 52.478 208.932 52.6342 208.781C52.7905 208.628 52.9112 208.437 52.9964 208.21L53.968 208.483C53.8658 208.812 53.6939 209.102 53.4524 209.352C53.2109 209.599 52.9126 209.793 52.5575 209.932C52.2024 210.068 51.8033 210.136 51.3601 210.136ZM61.8047 210H59.1115V201.273H61.924C62.7706 201.273 63.495 201.447 64.0973 201.797C64.6996 202.143 65.1612 202.642 65.4822 203.293C65.8033 203.94 65.9638 204.716 65.9638 205.619C65.9638 206.528 65.8018 207.311 65.478 207.967C65.1541 208.621 64.6825 209.124 64.0632 209.476C63.4439 209.825 62.6911 210 61.8047 210ZM60.1683 209.062H61.7365C62.4581 209.062 63.0561 208.923 63.5305 208.645C64.005 208.366 64.3587 207.97 64.5916 207.456C64.8246 206.942 64.9411 206.33 64.9411 205.619C64.9411 204.915 64.826 204.308 64.5959 203.8C64.3658 203.288 64.022 202.896 63.5646 202.624C63.1072 202.348 62.5376 202.21 61.8558 202.21H60.1683V209.062ZM67.6001 210V203.455H68.6058V210H67.6001ZM68.1115 202.364C67.9155 202.364 67.7464 202.297 67.6044 202.163C67.4652 202.03 67.3956 201.869 67.3956 201.682C67.3956 201.494 67.4652 201.334 67.6044 201.2C67.7464 201.067 67.9155 201 68.1115 201C68.3075 201 68.4751 201.067 68.6143 201.2C68.7564 201.334 68.8274 201.494 68.8274 201.682C68.8274 201.869 68.7564 202.03 68.6143 202.163C68.4751 202.297 68.3075 202.364 68.1115 202.364ZM72.3739 210.153C71.9592 210.153 71.5827 210.075 71.2447 209.919C70.9066 209.76 70.6381 209.531 70.4393 209.233C70.2404 208.932 70.141 208.568 70.141 208.142C70.141 207.767 70.2148 207.463 70.3626 207.23C70.5103 206.994 70.7077 206.81 70.9549 206.676C71.2021 206.543 71.4748 206.443 71.7731 206.378C72.0742 206.31 72.3768 206.256 72.6808 206.216C73.0785 206.165 73.4009 206.126 73.6481 206.101C73.8981 206.072 74.0799 206.026 74.1935 205.96C74.31 205.895 74.3683 205.781 74.3683 205.619V205.585C74.3683 205.165 74.2532 204.838 74.0231 204.605C73.7958 204.372 73.4506 204.256 72.9876 204.256C72.5075 204.256 72.131 204.361 71.8583 204.571C71.5856 204.781 71.3938 205.006 71.283 205.244L70.3285 204.903C70.4989 204.506 70.7262 204.196 71.0103 203.974C71.2972 203.75 71.6097 203.594 71.9478 203.506C72.2887 203.415 72.6239 203.369 72.9535 203.369C73.1637 203.369 73.4052 203.395 73.6779 203.446C73.9535 203.494 74.2191 203.595 74.4748 203.749C74.7333 203.902 74.9478 204.134 75.1183 204.443C75.2887 204.753 75.3739 205.168 75.3739 205.688V210H74.3683V209.114H74.3171C74.2489 209.256 74.1353 209.408 73.9762 209.57C73.8171 209.732 73.6055 209.869 73.3413 209.983C73.0771 210.097 72.7546 210.153 72.3739 210.153ZM72.5273 209.25C72.9251 209.25 73.2603 209.172 73.533 209.016C73.8086 208.859 74.016 208.658 74.1552 208.411C74.2972 208.163 74.3683 207.903 74.3683 207.631V206.71C74.3256 206.761 74.2319 206.808 74.087 206.851C73.945 206.891 73.7802 206.926 73.5927 206.957C73.408 206.986 73.2276 207.011 73.0515 207.034C72.8782 207.054 72.7376 207.071 72.6296 207.085C72.3683 207.119 72.1239 207.175 71.8967 207.251C71.6722 207.325 71.4904 207.437 71.3512 207.588C71.2148 207.736 71.1467 207.937 71.1467 208.193C71.1467 208.543 71.2759 208.807 71.5344 208.986C71.7958 209.162 72.1268 209.25 72.5273 209.25ZM77.3459 210V201.273H78.3516V204.494H78.4368C78.5107 204.381 78.6129 204.236 78.7436 204.06C78.8771 203.881 79.0675 203.722 79.3146 203.582C79.5646 203.44 79.9027 203.369 80.3288 203.369C80.88 203.369 81.3658 203.507 81.7862 203.783C82.2067 204.058 82.5348 204.449 82.7706 204.955C83.0064 205.46 83.1243 206.057 83.1243 206.744C83.1243 207.438 83.0064 208.038 82.7706 208.547C82.5348 209.053 82.2081 209.445 81.7905 209.723C81.3729 209.999 80.8913 210.136 80.3459 210.136C79.9254 210.136 79.5888 210.067 79.3359 209.928C79.0831 209.786 78.8885 209.625 78.7521 209.446C78.6158 209.264 78.5107 209.114 78.4368 208.994H78.3175V210H77.3459ZM78.3345 206.727C78.3345 207.222 78.407 207.658 78.5518 208.036C78.6967 208.411 78.9084 208.705 79.1868 208.918C79.4652 209.128 79.8061 209.233 80.2095 209.233C80.63 209.233 80.9808 209.122 81.2621 208.901C81.5462 208.676 81.7592 208.375 81.9013 207.997C82.0462 207.616 82.1186 207.193 82.1186 206.727C82.1186 206.267 82.0476 205.852 81.9055 205.483C81.7663 205.111 81.5547 204.817 81.2706 204.601C80.9893 204.382 80.6357 204.273 80.2095 204.273C79.8004 204.273 79.4567 204.376 79.1783 204.584C78.8999 204.788 78.6896 205.075 78.5476 205.445C78.4055 205.811 78.3345 206.239 78.3345 206.727ZM87.407 210.136C86.7763 210.136 86.2322 209.997 85.7749 209.719C85.3203 209.438 84.9695 209.045 84.7223 208.543C84.478 208.037 84.3558 207.449 84.3558 206.778C84.3558 206.108 84.478 205.517 84.7223 205.006C84.9695 204.491 85.3132 204.091 85.7536 203.804C86.1967 203.514 86.7138 203.369 87.3047 203.369C87.6456 203.369 87.9822 203.426 88.3146 203.54C88.647 203.653 88.9496 203.838 89.2223 204.094C89.495 204.347 89.7124 204.682 89.8743 205.099C90.0362 205.517 90.1172 206.031 90.1172 206.642V207.068H85.0717V206.199H89.0945C89.0945 205.83 89.0206 205.5 88.8729 205.21C88.728 204.92 88.5206 204.692 88.2507 204.524C87.9837 204.357 87.6683 204.273 87.3047 204.273C86.9041 204.273 86.5575 204.372 86.2649 204.571C85.9751 204.767 85.7521 205.023 85.5959 205.338C85.4396 205.653 85.3615 205.991 85.3615 206.352V206.932C85.3615 207.426 85.4467 207.845 85.6172 208.189C85.7905 208.53 86.0305 208.79 86.3374 208.969C86.6442 209.145 87.0007 209.233 87.407 209.233C87.6712 209.233 87.9098 209.196 88.1229 209.122C88.3388 209.045 88.5249 208.932 88.6811 208.781C88.8374 208.628 88.9581 208.437 89.0433 208.21L90.0149 208.483C89.9126 208.812 89.7408 209.102 89.4993 209.352C89.2578 209.599 88.9595 209.793 88.6044 209.932C88.2493 210.068 87.8501 210.136 87.407 210.136ZM94.4936 203.455V204.307H91.1016V203.455H94.4936ZM92.0902 201.886H93.0959V208.125C93.0959 208.409 93.1371 208.622 93.2195 208.764C93.3047 208.903 93.4126 208.997 93.5433 209.045C93.6768 209.091 93.8175 209.114 93.9652 209.114C94.076 209.114 94.1669 209.108 94.2379 209.097C94.3089 209.082 94.3658 209.071 94.4084 209.062L94.6129 209.966C94.5447 209.991 94.4496 210.017 94.3274 210.043C94.2053 210.071 94.0504 210.085 93.8629 210.085C93.5788 210.085 93.3004 210.024 93.0277 209.902C92.7578 209.78 92.5334 209.594 92.3544 209.344C92.1783 209.094 92.0902 208.778 92.0902 208.398V201.886ZM98.6804 210.136C98.0497 210.136 97.5057 209.997 97.0483 209.719C96.5938 209.438 96.2429 209.045 95.9957 208.543C95.7514 208.037 95.6293 207.449 95.6293 206.778C95.6293 206.108 95.7514 205.517 95.9957 205.006C96.2429 204.491 96.5866 204.091 97.027 203.804C97.4702 203.514 97.9872 203.369 98.5781 203.369C98.919 203.369 99.2557 203.426 99.5881 203.54C99.9205 203.653 100.223 203.838 100.496 204.094C100.768 204.347 100.986 204.682 101.148 205.099C101.31 205.517 101.391 206.031 101.391 206.642V207.068H96.3452V206.199H100.368C100.368 205.83 100.294 205.5 100.146 205.21C100.001 204.92 99.794 204.692 99.5241 204.524C99.2571 204.357 98.9418 204.273 98.5781 204.273C98.1776 204.273 97.831 204.372 97.5384 204.571C97.2486 204.767 97.0256 205.023 96.8693 205.338C96.7131 205.653 96.6349 205.991 96.6349 206.352V206.932C96.6349 207.426 96.7202 207.845 96.8906 208.189C97.0639 208.53 97.304 208.79 97.6108 208.969C97.9176 209.145 98.2741 209.233 98.6804 209.233C98.9446 209.233 99.1832 209.196 99.3963 209.122C99.6122 209.045 99.7983 208.932 99.9545 208.781C100.111 208.628 100.232 208.437 100.317 208.21L101.288 208.483C101.186 208.812 101.014 209.102 100.773 209.352C100.531 209.599 100.233 209.793 99.8778 209.932C99.5227 210.068 99.1236 210.136 98.6804 210.136ZM107.557 204.92L106.653 205.176C106.597 205.026 106.513 204.879 106.402 204.737C106.294 204.592 106.146 204.473 105.959 204.379C105.771 204.286 105.531 204.239 105.239 204.239C104.838 204.239 104.504 204.331 104.237 204.516C103.973 204.697 103.841 204.929 103.841 205.21C103.841 205.46 103.932 205.658 104.114 205.803C104.295 205.947 104.58 206.068 104.966 206.165L105.938 206.403C106.523 206.545 106.959 206.763 107.246 207.055C107.533 207.345 107.676 207.719 107.676 208.176C107.676 208.551 107.568 208.886 107.352 209.182C107.139 209.477 106.841 209.71 106.457 209.881C106.074 210.051 105.628 210.136 105.119 210.136C104.452 210.136 103.899 209.991 103.462 209.702C103.024 209.412 102.747 208.989 102.631 208.432L103.585 208.193C103.676 208.545 103.848 208.81 104.101 208.986C104.357 209.162 104.69 209.25 105.102 209.25C105.571 209.25 105.943 209.151 106.219 208.952C106.497 208.75 106.636 208.509 106.636 208.227C106.636 208 106.557 207.81 106.398 207.656C106.239 207.5 105.994 207.384 105.665 207.307L104.574 207.051C103.974 206.909 103.534 206.689 103.253 206.391C102.974 206.089 102.835 205.713 102.835 205.261C102.835 204.892 102.939 204.565 103.146 204.281C103.357 203.997 103.642 203.774 104.003 203.612C104.366 203.45 104.778 203.369 105.239 203.369C105.886 203.369 106.395 203.511 106.764 203.795C107.136 204.08 107.401 204.455 107.557 204.92ZM112.701 210V201.273H117.968V202.21H113.758V205.159H117.696V206.097H113.758V209.062H118.037V210H112.701ZM121.663 210.153C121.248 210.153 120.872 210.075 120.534 209.919C120.196 209.76 119.927 209.531 119.728 209.233C119.529 208.932 119.43 208.568 119.43 208.142C119.43 207.767 119.504 207.463 119.652 207.23C119.799 206.994 119.997 206.81 120.244 206.676C120.491 206.543 120.764 206.443 121.062 206.378C121.363 206.31 121.666 206.256 121.97 206.216C122.368 206.165 122.69 206.126 122.937 206.101C123.187 206.072 123.369 206.026 123.483 205.96C123.599 205.895 123.657 205.781 123.657 205.619V205.585C123.657 205.165 123.542 204.838 123.312 204.605C123.085 204.372 122.74 204.256 122.277 204.256C121.797 204.256 121.42 204.361 121.147 204.571C120.875 204.781 120.683 205.006 120.572 205.244L119.618 204.903C119.788 204.506 120.015 204.196 120.299 203.974C120.586 203.75 120.899 203.594 121.237 203.506C121.578 203.415 121.913 203.369 122.243 203.369C122.453 203.369 122.694 203.395 122.967 203.446C123.243 203.494 123.508 203.595 123.764 203.749C124.022 203.902 124.237 204.134 124.407 204.443C124.578 204.753 124.663 205.168 124.663 205.688V210H123.657V209.114H123.606C123.538 209.256 123.424 209.408 123.265 209.57C123.106 209.732 122.895 209.869 122.63 209.983C122.366 210.097 122.044 210.153 121.663 210.153ZM121.816 209.25C122.214 209.25 122.549 209.172 122.822 209.016C123.098 208.859 123.305 208.658 123.444 208.411C123.586 208.163 123.657 207.903 123.657 207.631V206.71C123.615 206.761 123.521 206.808 123.376 206.851C123.234 206.891 123.069 206.926 122.882 206.957C122.697 206.986 122.517 207.011 122.341 207.034C122.167 207.054 122.027 207.071 121.919 207.085C121.657 207.119 121.413 207.175 121.186 207.251C120.961 207.325 120.779 207.437 120.64 207.588C120.504 207.736 120.436 207.937 120.436 208.193C120.436 208.543 120.565 208.807 120.824 208.986C121.085 209.162 121.416 209.25 121.816 209.25ZM131.135 204.92L130.232 205.176C130.175 205.026 130.091 204.879 129.98 204.737C129.872 204.592 129.724 204.473 129.537 204.379C129.349 204.286 129.109 204.239 128.817 204.239C128.416 204.239 128.082 204.331 127.815 204.516C127.551 204.697 127.419 204.929 127.419 205.21C127.419 205.46 127.51 205.658 127.692 205.803C127.874 205.947 128.158 206.068 128.544 206.165L129.516 206.403C130.101 206.545 130.537 206.763 130.824 207.055C131.111 207.345 131.254 207.719 131.254 208.176C131.254 208.551 131.146 208.886 130.93 209.182C130.717 209.477 130.419 209.71 130.036 209.881C129.652 210.051 129.206 210.136 128.697 210.136C128.03 210.136 127.477 209.991 127.04 209.702C126.602 209.412 126.325 208.989 126.209 208.432L127.163 208.193C127.254 208.545 127.426 208.81 127.679 208.986C127.935 209.162 128.268 209.25 128.68 209.25C129.149 209.25 129.521 209.151 129.797 208.952C130.075 208.75 130.214 208.509 130.214 208.227C130.214 208 130.135 207.81 129.976 207.656C129.817 207.5 129.572 207.384 129.243 207.307L128.152 207.051C127.553 206.909 127.112 206.689 126.831 206.391C126.553 206.089 126.413 205.713 126.413 205.261C126.413 204.892 126.517 204.565 126.724 204.281C126.935 203.997 127.22 203.774 127.581 203.612C127.945 203.45 128.357 203.369 128.817 203.369C129.464 203.369 129.973 203.511 130.342 203.795C130.714 204.08 130.979 204.455 131.135 204.92ZM132.768 210V203.455H133.774V210H132.768ZM133.279 202.364C133.083 202.364 132.914 202.297 132.772 202.163C132.633 202.03 132.564 201.869 132.564 201.682C132.564 201.494 132.633 201.334 132.772 201.2C132.914 201.067 133.083 201 133.279 201C133.475 201 133.643 201.067 133.782 201.2C133.924 201.334 133.995 201.494 133.995 201.682C133.995 201.869 133.924 202.03 133.782 202.163C133.643 202.297 133.475 202.364 133.279 202.364ZM138.36 210.136C137.729 210.136 137.185 209.997 136.728 209.719C136.273 209.438 135.923 209.045 135.675 208.543C135.431 208.037 135.309 207.449 135.309 206.778C135.309 206.108 135.431 205.517 135.675 205.006C135.923 204.491 136.266 204.091 136.707 203.804C137.15 203.514 137.667 203.369 138.258 203.369C138.599 203.369 138.935 203.426 139.268 203.54C139.6 203.653 139.903 203.838 140.175 204.094C140.448 204.347 140.665 204.682 140.827 205.099C140.989 205.517 141.07 206.031 141.07 206.642V207.068H136.025V206.199H140.048C140.048 205.83 139.974 205.5 139.826 205.21C139.681 204.92 139.474 204.692 139.204 204.524C138.937 204.357 138.621 204.273 138.258 204.273C137.857 204.273 137.511 204.372 137.218 204.571C136.928 204.767 136.705 205.023 136.549 205.338C136.393 205.653 136.315 205.991 136.315 206.352V206.932C136.315 207.426 136.4 207.845 136.57 208.189C136.744 208.53 136.984 208.79 137.29 208.969C137.597 209.145 137.954 209.233 138.36 209.233C138.624 209.233 138.863 209.196 139.076 209.122C139.292 209.045 139.478 208.932 139.634 208.781C139.79 208.628 139.911 208.437 139.996 208.21L140.968 208.483C140.866 208.812 140.694 209.102 140.452 209.352C140.211 209.599 139.913 209.793 139.558 209.932C139.202 210.068 138.803 210.136 138.36 210.136ZM142.6 210V203.455H143.572V204.443H143.64C143.759 204.119 143.975 203.857 144.288 203.655C144.6 203.453 144.952 203.352 145.344 203.352C145.418 203.352 145.511 203.354 145.621 203.357C145.732 203.359 145.816 203.364 145.873 203.369V204.392C145.839 204.384 145.761 204.371 145.638 204.354C145.519 204.334 145.393 204.324 145.259 204.324C144.941 204.324 144.657 204.391 144.407 204.524C144.16 204.655 143.964 204.837 143.819 205.07C143.677 205.3 143.606 205.562 143.606 205.858V210H142.6Z" fill="#4D4D4D"/>
</svg>
