<svg width="175" height="163" viewBox="0 0 175 163" fill="none" xmlns="http://www.w3.org/2000/svg">
<g clip-path="url(#clip0_191_9)">
<path d="M77.7509 79.4715C74.6001 72.8555 76.328 65.4359 81.6227 62.914C86.9174 60.3921 93.7653 63.7208 96.9192 70.3336C100.073 76.9465 98.339 84.347 93.0443 86.8689C87.7496 89.3908 80.9017 86.0653 77.7509 79.4715ZM108.909 47.392C113.991 79.2524 91.326 103.134 91.326 103.134C91.326 103.134 72.6436 71.5056 41.1993 61.9612C102.344 106.672 67.5426 162.415 67.5426 162.415H85.2435C85.2435 162.415 126.388 91.414 108.909 47.392Z" fill="#2411FF"/>
<path d="M68.6602 49.135C66.8863 46.0551 68.1069 42.0329 68.1069 42.0329C68.1069 42.0329 72.1955 42.9815 73.9694 46.0614C75.2564 48.3034 74.9592 51.0228 74.7062 52.3477C74.4374 51.8007 74.1465 51.222 73.8113 50.6338C72.8178 48.9408 71.6583 47.3703 70.333 45.9223C70.916 47.801 71.6981 49.5929 72.6793 51.2979C73.0271 51.8924 73.3718 52.4299 73.7133 52.9359C72.4548 52.4805 69.9472 51.3769 68.6602 49.135ZM114.138 76.2564C115.159 77.1355 117.369 78.7513 119.946 78.7513C123.498 78.7513 126.366 75.6809 126.366 75.6809C126.366 75.6809 123.501 72.6137 119.946 72.6137C117.369 72.6137 115.159 74.2295 114.138 75.1086C114.748 75.0643 115.384 75.0327 116.07 75.0327C118.037 75.0358 119.982 75.2466 121.904 75.6651C119.982 76.0884 118.037 76.2993 116.07 76.2975C115.425 76.3198 114.781 76.3061 114.138 76.2564V76.2564ZM101.243 50.6433C102.229 48.9409 103.388 47.3662 104.721 45.9191C104.135 47.7978 103.351 49.5897 102.368 51.2947C102.027 51.8797 101.682 52.4267 101.328 52.9327C102.615 52.49 105.123 51.3769 106.387 49.1381C108.168 46.0551 106.96 42.0266 106.96 42.0266C106.96 42.0266 102.849 43.0005 101.088 46.0614C99.8038 48.2939 100.088 51.0069 100.348 52.3508C100.616 51.7668 100.914 51.1986 101.243 50.6465V50.6433ZM86.0898 33.8999C86.0963 29.5355 86.5748 25.2234 87.5254 20.9637C88.4771 25.2233 88.9567 29.5354 88.9641 33.8999C88.9641 35.4114 88.8914 36.8407 88.7839 38.1941C90.7507 35.9237 94.3397 31.0034 94.3397 25.2674C94.3397 17.3621 87.5254 10.981 87.5254 10.981C87.5254 10.981 80.7079 17.3748 80.7079 25.2674C80.7079 31.0034 84.2969 35.9174 86.2605 38.1941C86.172 36.8439 86.0898 35.4209 86.0898 33.9031V33.8999ZM40.4605 56.3794C45.4345 59.2474 51.4805 58.5929 54.4307 58.03C53.2102 57.4577 51.9327 56.7873 50.6362 56.0379C46.8584 53.8536 43.3622 51.286 40.1475 48.335C44.3122 49.6391 48.2859 51.3793 52.0686 53.5556C53.3778 54.3145 54.5983 55.0829 55.7019 55.8576C54.7248 53.0117 52.2679 47.4496 47.2875 44.5784C40.4605 40.6289 31.5149 43.3325 31.5149 43.3325C31.5149 43.3325 33.6304 52.4426 40.4605 56.3825L40.4605 56.3794ZM134.581 94.9824C129.613 92.1175 123.567 92.7689 120.617 93.3286C121.841 93.9041 123.118 94.5745 124.411 95.3239C128.187 97.513 131.683 100.082 134.9 103.03C130.733 101.727 126.758 99.9881 122.973 97.8125C121.664 97.0504 120.462 96.2789 119.346 95.5042C120.323 98.3501 122.78 103.909 127.747 106.777C134.574 110.73 143.53 108.026 143.53 108.026C143.53 108.026 141.408 98.9224 134.581 94.9824ZM55.6861 95.52C54.5635 96.2852 53.3651 97.0536 52.056 97.8188C48.2688 99.9892 44.2941 101.731 40.1317 103.046C43.3446 100.089 46.8398 97.5165 50.6172 95.3271C51.9327 94.565 53.207 93.9231 54.4276 93.335C51.4805 92.7626 45.425 92.1081 40.4542 94.9888C33.6241 98.9287 31.4896 108.029 31.4896 108.029C31.4896 108.029 40.4384 110.733 47.2717 106.793C52.2489 103.912 54.7058 98.3564 55.6861 95.52ZM119.374 55.8387C120.487 55.0734 121.692 54.305 123.011 53.5461C126.791 51.3699 130.763 49.6297 134.925 48.3255C131.711 51.28 128.214 53.8487 124.434 56.0316C123.124 56.7905 121.844 57.4482 120.639 58.0205C123.58 58.5929 129.635 59.2506 134.593 56.3731C141.43 52.4267 143.558 43.323 143.558 43.323C143.558 43.323 134.616 40.6257 127.789 44.5721C122.799 47.4401 120.323 53.0023 119.374 55.8387ZM60.9384 33.0082C59.917 31.5062 58.8767 29.8904 57.8585 28.1323C54.9388 23.0612 52.603 17.7341 50.8512 12.151C54.8142 16.4609 58.2609 21.1503 61.1913 26.2192C62.2064 27.9678 63.0886 29.6785 63.8601 31.3197C64.6317 27.3702 65.5044 19.2625 61.6467 12.6C56.3565 3.42985 44.157 0.583951 44.157 0.583951C44.157 0.583951 40.5364 12.5747 45.8235 21.7448C49.6718 28.3852 57.1375 31.6896 60.9289 33.0082L60.9384 33.0082ZM114.125 118.363C115.146 119.862 116.196 121.475 117.208 123.226C120.127 128.302 122.463 133.633 124.215 139.22C120.254 134.905 116.804 130.213 113.866 125.146C112.857 123.388 111.968 121.667 111.197 120.045C110.444 123.998 109.562 132.09 113.41 138.756C118.704 147.926 130.9 150.772 130.9 150.772C130.9 150.772 134.54 138.756 129.246 129.611C125.382 122.97 117.923 119.675 114.125 118.363ZM31.5086 77.6161C25.6553 77.6066 19.8728 76.9615 14.1613 75.6809C19.8728 74.4003 25.6553 73.7552 31.5086 73.7457C33.5418 73.7457 35.4581 73.8564 37.2668 73.986C34.228 71.3488 27.6445 66.5329 19.9384 66.5329C9.36751 66.5392 0.795029 75.6809 0.795029 75.6809C0.795029 75.6809 9.37383 84.8257 19.9384 84.8194C27.6382 84.8194 34.2217 80.0098 37.2605 77.379C35.4549 77.5149 33.5292 77.6161 31.5086 77.6161ZM155.109 66.5487C147.416 66.5487 140.832 71.3425 137.787 73.9923C139.599 73.8532 141.525 73.7489 143.542 73.7552C149.394 73.7641 155.175 74.4071 160.886 75.6841C155.179 76.9647 149.401 77.6098 143.552 77.6193C141.525 77.6193 139.599 77.5149 137.787 77.3821C140.826 80.0162 147.416 84.8257 155.109 84.8257C165.683 84.8257 174.246 75.6967 174.246 75.6967C174.246 75.6967 165.674 66.5456 155.106 66.5551L155.109 66.5487ZM61.1913 125.162C58.2552 130.227 54.8064 134.915 50.8449 139.227C52.5944 133.645 54.928 128.319 57.8458 123.249C58.8672 121.5 59.9075 119.89 60.9352 118.373C57.1407 119.691 49.6654 122.989 45.8203 129.658C40.5269 138.812 44.1539 150.816 44.1539 150.816C44.1539 150.816 56.3596 147.97 61.6498 138.8C65.5013 132.131 64.6285 124.02 63.8633 120.08C63.0665 121.693 62.1937 123.388 61.1913 125.162ZM113.869 26.1876C116.802 21.1234 120.248 16.4371 124.209 12.1288C122.46 17.7131 120.124 23.0402 117.202 28.1101C116.19 29.8524 115.15 31.4809 114.128 32.9798C117.923 31.6675 125.392 28.3694 129.23 21.71C134.521 12.5747 130.894 0.558655 130.894 0.558655C130.894 0.558655 118.697 3.42353 113.404 12.5747C109.543 19.2436 110.422 27.3481 111.191 31.2944C111.978 29.6785 112.844 27.9678 113.866 26.2034L113.869 26.1876Z" fill="#77B530"/>
</g>
<defs>
<clipPath id="clip0_191_9">
<rect width="175" height="163" fill="white"/>
</clipPath>
</defs>
</svg>
